<?xml version="1.0" encoding="utf-8"?>
<!-- Generator: Adobe Illustrator 23.0.2, SVG Export Plug-In . SVG Version: 6.00 Build 0)  -->
<svg version="1.1" id="Layer_1" xmlns="http://www.w3.org/2000/svg" xmlns:xlink="http://www.w3.org/1999/xlink" x="0px" y="0px"
	 viewBox="0 0 237.9 53.8" style="enable-background:new 0 0 237.9 53.8;" xml:space="preserve">
<style type="text/css">
	.st0{fill-rule:evenodd;clip-rule:evenodd;fill:#E40048;}
	.st1{fill:url(#SVGID_1_);}
	.st2{fill:#EE7C00;}
	.st3{fill-rule:evenodd;clip-rule:evenodd;fill:#971880;}
	.st4{fill:#575656;}
</style>
<g>
	<path class="st0" d="M196.6,35.3c-1.4-1.1-2-0.7-1.8-3.2c0.1-1.4,0.4-3,0.5-4.4c0.3-2.8,0.9-6.2,1.1-8.9c-0.9-0.6-4.1-0.5-5.3-0.2
		c-0.6,0.1-0.2,0-0.6,0.2c-0.2,0.3-1.7,13.2-1.9,14.8C187.6,41.8,196.8,38.4,196.6,35.3 M205.2,34c1-3.7,1.5-7.7,1.6-11.5
		C203.1,24.5,202.5,32.1,205.2,34z M197.7,47.7c2.5-2.3,4.5-5.5,5.9-9c-0.7-0.1-1.5-0.2-2.3-0.6c-5.8-2.7-5.1-14.6,1.1-18.6
		c1.2-0.8,2.7-1.2,4.1-1.3c-0.4-4.7-1.6-8.9-3.6-12c-1.9,1.1-3.7,2.4-5.5,3.9c1.4,1.6,0.8,4.6-2.5,5.2c-1.1,0.2-2,0.1-2.7-0.2
		c-4.5,5.2-7.9,11.3-8.8,16.9c0.5,0.5,1.1,0.8,1.7,1.2c0.6,0.3,1.3,0.5,1.8,0.8c0.3,1.5-1.2,3.3-3.2,4.2
		C185,42.9,189.2,46.5,197.7,47.7z"/>
	<linearGradient id="SVGID_1_" gradientUnits="userSpaceOnUse" x1="142.5349" y1="3.2568" x2="234.7361" y2="48.6536">
		<stop  offset="0" style="stop-color:#372E84"/>
		<stop  offset="0.7797" style="stop-color:#E4007D"/>
	</linearGradient>
	<path class="st1" d="M183.7,38.2C183.8,38.2,183.8,38.2,183.7,38.2c-1.9,0.8-4.3,0.8-6.2-1.2c-0.8-0.9-1.1-1.1-1.8-2.2
		c-0.5-0.8-1-1.8-1.4-2.6c-0.8-1.8-1.5-4.2-1.8-6.1c-0.4-2.4-0.5-2,2.4-5.1c2.4-2.6,4.9-6.1,6.8-9.2c1.1-1.9,5.7-1.3,6.5-0.7
		c-0.9,1.8-3.5,4.4-4.8,6c-0.6,0.8-1.9,2.3-2.6,2.9c-0.8,0.8-2.2,1.8-2.7,2.8c0.9,3,2.8,6.9,5.4,9.1c0.9-5.6,4.3-11.7,8.8-16.9
		c0,0,0.1,0,0.1,0c-2.7-1.1-2.5-5.2,1.4-6c1.8-0.4,3.1,0.2,3.8,1.2c-0.1-0.1-0.1-0.2-0.2-0.2c1.8-1.5,3.7-2.8,5.5-3.9
		c-0.6-1-1.3-1.8-2.1-2.5c-10-9-51.2-0.9-50.6,16c0.2,6.5,5.6,13.9,12.6,19.9c0.4-3.2,0.8-6.5,1-7.8c0.6-4.9,1.5-11.3,1.7-12.9
		c0.2-1.5,0.9-5.3-1.3-5.8c-1.9-0.4-3.5,1.3-4.3,2.8c-1.4,2.8-0.3,4.7-0.3,6.2c0.1,2.5-8.2,3.1-6.6-4.3c1.8-8.3,15-10.6,18.1-5.5
		c1.8,2.9,0.4,9.4,0,12.8c-0.1,1.2-0.5,4-0.8,6.8c-0.1,1-0.4,3.5-0.8,6.2c-0.5,4.1,1.4,7.8,5.1,9.7c6.2,3.2,12.2,4.9,16.2,3.8
		l6.7-3.8C189.2,46.5,185,42.9,183.7,38.2z"/>
	<path class="st2" d="M207.5,22.2c-0.3,0.1-0.5,0.2-0.7,0.3c0,3.8-0.6,7.8-1.6,11.5c0.6,0.5,1.5,0.6,2.5,0.3
		C212.9,32.5,212.8,20.7,207.5,22.2z M206.5,18.2c2.2-0.1,4.4,0.9,5.4,3.1l0.1,0.3l0.2-0.4l1.6-13.1c0.5-1.9,1.8-3.2,5.1-3.5
		c-4-1.5-10.9-0.9-13.8,0.5c-0.7,0.3-1.4,0.7-2.1,1.1C205,9.2,206.2,13.5,206.5,18.2C206.6,18.2,206.5,18.2,206.5,18.2z M236.6,20.6
		c-2.8-5.6-6.9-10-11.4-13c-1.1-0.7-2.3-0.8-3.5-0.2c-1.2,0.5-1.9,1.6-2.1,2.8c-1.1,8.9-2.9,21.4-2.7,22.9c0.1,1.6,0.8,1.4,1.8,2.2
		c0.2,1.8-2.7,3.3-4.3,3.3c-2.9,0.1-3.6-1.5-3.8-4c0,0-2.9,4.5-7.2,4c0.1,0,0.1,0,0.2,0c-1.5,3.5-3.4,6.7-5.9,9
		c2.5,0.4,5.4,0.5,8.8,0.4c8.9-0.3,18.9-4.4,25.2-10.1c-3.5,1.3-8.3,1.1-10.9-1.5c-1.3-1.3-1.9-3.9-0.6-5.5c1.2-1.5,4.1-2.2,5.3-0.5
		c-0.1,1.4-1.5,2.9,0.2,4.4c1.2,1,3.3,0.8,4.3-0.3c2.3-2.6-1.7-5.2-3.2-7c-2-2.4-3.3-5.5-0.7-8c2.4-2.3,8.3-1.4,8.1,0.6
		c-0.8,0.5-1.9,0.1-2.6,1.1c-1.6,2.3,2.8,5.5,4.1,7c0.8,0.9,1.3,1.9,1.4,2.9C238.3,27.7,238.4,24.1,236.6,20.6z"/>
	<path class="st3" d="M152,34.8c-2.6,0.6-3.6,5.5-2.9,8.5c1.7,7.2,11,5,9.3-2.2C157.7,38.1,154.6,34.2,152,34.8"/>
	<path class="st4" d="M15.1,7.7c-2.4,0-4.4,1.3-5.3,3.5L0,34.5h2.9c1.1,0,2.1-0.6,2.5-1.7l2.1-5.1h11.4l2.1,5.1
		c0.4,1,1.4,1.7,2.5,1.7h3.2L15.4,7.7H15.1z M9.3,23.3l3.9-9.5l3.9,9.5H9.3z M53.1,34.5V7.8H41.7c-3,0-5.5,2.3-5.7,5.3l0,0
		c-0.5,6.1-1.3,10.6-2,12.9c-0.3,1.1-0.8,2-1.3,2.6c-0.4,0.5-0.8,0.8-1.1,1c-1,0.5-1.6,1.5-1.6,2.6l-0.1,2.2
		c5.3,0.7,8.7-1.8,10.3-17.3l0.5-5h7.8v19.6c0,1.5,1.2,2.7,2.7,2.7H53.1z M65.8,34.6c7,0,11.1-3.5,11.1-9.2c0-5.4-3.4-8.6-10.1-8.6
		c-1,0-2.1,0.1-3,0.2v-6.4c0-1.5-1.2-2.7-2.7-2.7h-2v26.7c0.4,0,1.4,0,3,0C63.6,34.6,64.8,34.6,65.8,34.6z M63.7,21.3
		c1.2-0.1,2.1-0.2,2.7-0.2c3.4,0,5.5,1.4,5.5,4.3c0,3.1-1.9,4.7-5.6,4.7c0,0-0.9,0-2.6-0.1V21.3z M106.4,13.2
		c-2.2-1.9-5.2-2.8-8.9-2.9V7.5h-2.1c-1.4,0-2.6,1.1-2.6,2.6v0.2c-3.7,0-6.7,1-9,2.8c-2.2,1.8-3.4,4.4-3.4,7.7
		c0,3.3,1.1,5.9,3.4,7.7c2.2,1.8,5.2,2.7,9,2.7v3.5h1.7c1.7,0,3-1.4,3-3v-0.5c3.7,0,6.7-1,8.9-2.8c2.2-1.9,3.4-4.4,3.4-7.7
		C109.8,17.5,108.6,15,106.4,13.2z M92.8,27c-4.7,0-7.4-2.2-7.4-6.2c0-3.7,2.6-6.1,7.4-6.2V27z M97.5,27V14.6c4.8,0,7.4,2.5,7.4,6.2
		C104.8,24.9,102.4,26.9,97.5,27z M125.5,7.7h-0.3c-2.4,0-4.4,1.3-5.3,3.5l-9.8,23.3h2.9c1.1,0,2.1-0.6,2.5-1.7l2.1-5.1H129l2.1,5.1
		c0.4,1,1.4,1.7,2.5,1.7h3.2L125.5,7.7z M119.4,23.3l3.9-9.5l3.9,9.5H119.4z M31.6,45.9c0,0-0.1,0-0.1,0c0,0-0.1,0-0.2,0
		c-0.1,0-0.1,0-0.2,0c0,0-0.1,0-0.1,0c0,0-0.1,0-0.1,0c0,0,0,0-0.1,0.1l-2.7,4c-0.1,0.1-0.1,0.2-0.2,0.3c-0.1,0.1-0.1,0.2-0.2,0.3h0
		c0-0.1,0-0.2,0-0.3c0-0.1,0-0.2,0-0.3V46c0,0,0,0,0-0.1c0,0,0,0-0.1,0c0,0-0.1,0-0.1,0c-0.1,0-0.1,0-0.2,0c-0.1,0-0.1,0-0.2,0
		c-0.1,0-0.1,0-0.1,0c0,0-0.1,0-0.1,0c0,0,0,0,0,0.1v6c0,0,0,0.1,0,0.1c0,0,0,0,0.1,0.1c0,0,0.1,0,0.1,0c0,0,0.1,0,0.2,0
		c0.1,0,0.1,0,0.2,0c0,0,0.1,0,0.1,0c0,0,0.1,0,0.1,0c0,0,0,0,0.1-0.1l2.7-4c0-0.1,0.1-0.1,0.1-0.2c0-0.1,0.1-0.1,0.1-0.2
		c0-0.1,0.1-0.1,0.1-0.2c0-0.1,0.1-0.1,0.1-0.1h0c0,0.1,0,0.2,0,0.3c0,0.1,0,0.2,0,0.3V52c0,0,0,0,0,0.1c0,0,0,0,0.1,0
		c0,0,0.1,0,0.1,0c0.1,0,0.1,0,0.2,0c0.1,0,0.1,0,0.2,0c0.1,0,0.1,0,0.1,0c0,0,0.1,0,0.1,0c0,0,0,0,0-0.1v-6
		C31.6,46,31.6,46,31.6,45.9C31.6,46,31.6,46,31.6,45.9z M37.9,45.9c0,0-0.1,0-0.1,0c0,0-0.1,0-0.2,0c-0.1,0-0.1,0-0.2,0
		c0,0-0.1,0-0.1,0c0,0-0.1,0-0.1,0c0,0,0,0-0.1,0.1l-2.7,4c-0.1,0.1-0.1,0.2-0.2,0.3c-0.1,0.1-0.1,0.2-0.2,0.3h0c0-0.1,0-0.2,0-0.3
		s0-0.2,0-0.3V46c0,0,0,0,0-0.1c0,0,0,0-0.1,0c0,0-0.1,0-0.1,0c-0.1,0-0.1,0-0.2,0c-0.1,0-0.1,0-0.2,0c-0.1,0-0.1,0-0.1,0
		c0,0-0.1,0-0.1,0c0,0,0,0,0,0.1v6c0,0,0,0.1,0,0.1c0,0,0,0,0.1,0.1c0,0,0.1,0,0.1,0c0,0,0.1,0,0.2,0c0.1,0,0.1,0,0.2,0
		c0,0,0.1,0,0.1,0c0,0,0.1,0,0.1,0c0,0,0,0,0.1-0.1l2.7-4c0-0.1,0.1-0.1,0.1-0.2c0-0.1,0.1-0.1,0.1-0.2c0-0.1,0.1-0.1,0.1-0.2
		c0-0.1,0.1-0.1,0.1-0.1h0c0,0.1,0,0.2,0,0.3c0,0.1,0,0.2,0,0.3V52c0,0,0,0,0,0.1c0,0,0,0,0.1,0c0,0,0.1,0,0.1,0c0.1,0,0.1,0,0.2,0
		c0.1,0,0.1,0,0.2,0c0.1,0,0.1,0,0.1,0c0,0,0.1,0,0.1,0c0,0,0,0,0-0.1v-6C37.9,46,37.9,46,37.9,45.9C37.9,46,37.9,46,37.9,45.9z
		 M48.5,46c0,0-0.1-0.1-0.1-0.1c0,0-0.1,0-0.1,0h-0.5c-0.1,0-0.2,0-0.2,0c-0.1,0-0.1,0-0.2,0.1c-0.1,0-0.1,0.1-0.1,0.2
		c0,0.1-0.1,0.1-0.1,0.2l-1.8,4.5h0l-1.8-4.5c0-0.1-0.1-0.2-0.1-0.2c0-0.1-0.1-0.1-0.1-0.2C43.1,46,43,46,42.9,46
		c-0.1,0-0.2,0-0.3,0h-0.5c-0.1,0-0.2,0-0.2,0.1c-0.1,0.1-0.1,0.2-0.1,0.3V52c0,0,0,0,0,0.1c0,0,0,0,0.1,0c0,0,0.1,0,0.1,0
		c0.1,0,0.1,0,0.2,0c0.1,0,0.1,0,0.2,0c0.1,0,0.1,0,0.1,0c0,0,0.1,0,0.1,0c0,0,0,0,0-0.1v-5.4h0l2.1,5.4c0,0,0,0,0,0.1
		c0,0,0,0,0.1,0c0,0,0.1,0,0.1,0c0,0,0.1,0,0.2,0c0.1,0,0.1,0,0.2,0c0,0,0.1,0,0.1,0c0,0,0.1,0,0.1,0c0,0,0,0,0-0.1l2.2-5.4h0V52
		c0,0,0,0,0,0.1c0,0,0,0,0.1,0c0,0,0.1,0,0.1,0c0.1,0,0.1,0,0.2,0c0.1,0,0.1,0,0.2,0c0.1,0,0.1,0,0.1,0c0,0,0.1,0,0.1,0
		c0,0,0,0,0-0.1v-5.7c0-0.1,0-0.1,0-0.2C48.5,46.1,48.5,46,48.5,46z M53.6,51.5C53.6,51.5,53.6,51.5,53.6,51.5
		c-0.1-0.1-0.1-0.1-0.1-0.1H51v-2.2h2.1c0,0,0,0,0.1,0c0,0,0,0,0.1-0.1c0,0,0-0.1,0-0.1c0,0,0-0.1,0-0.1c0-0.1,0-0.1,0-0.2
		c0,0,0-0.1,0-0.1c0,0,0,0-0.1-0.1c0,0,0,0-0.1,0H51v-1.9h2.4c0,0,0,0,0.1,0c0,0,0,0,0.1-0.1c0,0,0-0.1,0-0.1c0,0,0-0.1,0-0.2
		c0-0.1,0-0.1,0-0.2c0,0,0-0.1,0-0.1c0,0,0,0-0.1-0.1c0,0,0,0-0.1,0h-2.9c-0.1,0-0.1,0-0.2,0.1c-0.1,0.1-0.1,0.1-0.1,0.3v5.5
		c0,0.1,0,0.2,0.1,0.3c0.1,0,0.1,0.1,0.2,0.1h3c0,0,0,0,0.1,0c0,0,0,0,0.1-0.1c0,0,0-0.1,0-0.1c0,0,0-0.1,0-0.2c0-0.1,0-0.1,0-0.2
		C53.6,51.6,53.6,51.6,53.6,51.5z M20.5,51C20.5,50.9,20.5,50.9,20.5,51C20.5,50.9,20.5,50.9,20.5,51c-0.1-0.1-0.2,0-0.3,0
		c-0.1,0.1-0.2,0.1-0.3,0.2c-0.1,0.1-0.3,0.1-0.5,0.2c-0.2,0.1-0.4,0.1-0.6,0.1c-0.3,0-0.6-0.1-0.8-0.2c-0.2-0.1-0.4-0.3-0.6-0.5
		c-0.2-0.2-0.3-0.5-0.4-0.8c-0.1-0.3-0.1-0.7-0.1-1c0-0.4,0-0.7,0.1-1.1c0.1-0.3,0.2-0.6,0.4-0.8c0.2-0.2,0.4-0.4,0.6-0.5
		c0.2-0.1,0.5-0.2,0.8-0.2c0.3,0,0.5,0,0.7,0.1c0.2,0.1,0.3,0.1,0.5,0.2c0.1,0.1,0.2,0.1,0.3,0.2c0.1,0.1,0.1,0.1,0.2,0.1
		c0,0,0,0,0.1,0c0,0,0,0,0-0.1c0,0,0-0.1,0-0.1c0,0,0-0.1,0-0.2c0-0.1,0-0.1,0-0.1c0,0,0-0.1,0-0.1c0,0,0-0.1,0-0.1
		c0,0,0-0.1-0.1-0.1c0,0-0.1-0.1-0.2-0.2c-0.1-0.1-0.2-0.1-0.4-0.2c-0.1-0.1-0.3-0.1-0.5-0.1c-0.2,0-0.3,0-0.5,0
		c-0.4,0-0.8,0.1-1.1,0.2c-0.3,0.1-0.6,0.4-0.9,0.6c-0.2,0.3-0.4,0.6-0.6,1c-0.1,0.4-0.2,0.9-0.2,1.4c0,0.5,0.1,0.9,0.2,1.3
		c0.1,0.4,0.3,0.7,0.5,1c0.2,0.3,0.5,0.5,0.8,0.6c0.3,0.1,0.7,0.2,1.1,0.2c0.2,0,0.4,0,0.6-0.1c0.2,0,0.4-0.1,0.5-0.2
		c0.2-0.1,0.3-0.1,0.4-0.2c0.1-0.1,0.2-0.1,0.2-0.1c0,0,0.1-0.1,0.1-0.1c0,0,0,0,0-0.1c0,0,0-0.1,0-0.1c0,0,0-0.1,0-0.1
		c0-0.1,0-0.1,0-0.2C20.5,51,20.5,51,20.5,51z M15.7,46C15.7,46,15.7,46,15.7,46c-0.1-0.1-0.1-0.1-0.1-0.1h-4.3c0,0,0,0-0.1,0
		c0,0,0,0-0.1,0.1c0,0,0,0.1,0,0.1c0,0,0,0.1,0,0.2c0,0.1,0,0.1,0,0.2c0,0,0,0.1,0,0.1c0,0,0,0,0.1,0.1c0,0,0,0,0.1,0h1.7V52
		c0,0,0,0,0,0.1c0,0,0,0,0.1,0c0,0,0.1,0,0.1,0c0.1,0,0.1,0,0.2,0c0.1,0,0.1,0,0.2,0c0.1,0,0.1,0,0.1,0c0,0,0.1,0,0.1,0
		c0,0,0,0,0-0.1v-5.4h1.7c0,0,0,0,0.1,0c0,0,0,0,0.1-0.1c0,0,0-0.1,0-0.1c0,0,0-0.1,0-0.2c0-0.1,0-0.1,0-0.2
		C15.8,46.1,15.8,46,15.7,46z M10.6,51.5C10.6,51.5,10.5,51.5,10.6,51.5c-0.1-0.1-0.1-0.1-0.1-0.1H8v-2.2h2.1c0,0,0,0,0.1,0
		c0,0,0,0,0.1-0.1c0,0,0-0.1,0-0.1c0,0,0-0.1,0-0.1c0-0.1,0-0.1,0-0.2c0,0,0-0.1,0-0.1c0,0,0,0-0.1-0.1c0,0,0,0-0.1,0H8v-1.9h2.4
		c0,0,0,0,0.1,0c0,0,0,0,0.1-0.1c0,0,0-0.1,0-0.1c0,0,0-0.1,0-0.2c0-0.1,0-0.1,0-0.2c0,0,0-0.1,0-0.1c0,0,0,0-0.1-0.1c0,0,0,0-0.1,0
		H7.5c-0.1,0-0.1,0-0.2,0.1c-0.1,0.1-0.1,0.1-0.1,0.3v5.5c0,0.1,0,0.2,0.1,0.3c0.1,0,0.1,0.1,0.2,0.1h3c0,0,0,0,0.1,0
		c0,0,0,0,0.1-0.1c0,0,0-0.1,0-0.1c0,0,0-0.1,0-0.2c0-0.1,0-0.1,0-0.2C10.6,51.6,10.6,51.6,10.6,51.5z M25.7,51.7l-0.6-1.5
		c-0.1-0.2-0.2-0.4-0.2-0.5c-0.1-0.1-0.2-0.3-0.3-0.4c-0.1-0.1-0.2-0.2-0.3-0.3c-0.1-0.1-0.3-0.1-0.4-0.2v0c0.1,0,0.2-0.1,0.4-0.2
		c0.1-0.1,0.2-0.1,0.3-0.3c0.1-0.1,0.2-0.2,0.2-0.4c0.1-0.1,0.1-0.3,0.2-0.5l0.5-1.3c0-0.1,0-0.1,0-0.2c0,0,0-0.1,0-0.1
		c0,0,0,0,0-0.1c0,0,0,0-0.1,0c0,0-0.1,0-0.1,0c-0.1,0-0.1,0-0.2,0c-0.1,0-0.2,0-0.2,0c-0.1,0-0.1,0-0.1,0c0,0-0.1,0-0.1,0.1
		c0,0,0,0.1,0,0.1l-0.5,1.4c-0.1,0.2-0.1,0.4-0.2,0.5c-0.1,0.1-0.2,0.3-0.3,0.4c-0.1,0.1-0.2,0.2-0.4,0.2c-0.1,0-0.3,0.1-0.5,0.1
		h-0.3V46c0,0,0,0,0-0.1c0,0,0,0-0.1,0c0,0-0.1,0-0.1,0c-0.1,0-0.1,0-0.2,0c-0.1,0-0.1,0-0.2,0c-0.1,0-0.1,0-0.1,0c0,0-0.1,0-0.1,0
		c0,0,0,0,0,0.1v6c0,0,0,0,0,0.1c0,0,0,0,0.1,0c0,0,0.1,0,0.1,0c0.1,0,0.1,0,0.2,0c0.1,0,0.1,0,0.2,0c0.1,0,0.1,0,0.1,0
		c0,0,0.1,0,0.1,0c0,0,0,0,0-0.1v-2.7h0.3c0.2,0,0.4,0,0.5,0.1c0.2,0,0.3,0.1,0.4,0.2c0.1,0.1,0.2,0.2,0.3,0.4
		c0.1,0.1,0.2,0.3,0.3,0.5l0.6,1.5c0,0,0,0.1,0,0.1c0,0,0,0,0.1,0.1c0,0,0.1,0,0.1,0c0.1,0,0.1,0,0.2,0c0.1,0,0.1,0,0.2,0
		c0.1,0,0.1,0,0.1,0c0,0,0.1,0,0.1,0c0,0,0,0,0-0.1c0,0,0-0.1,0-0.1C25.8,51.9,25.7,51.8,25.7,51.7z M5.9,51.4H5.3v-5.2
		c0-0.1,0-0.2-0.1-0.3C5.2,46,5.1,45.9,5,45.9H2.2C2.1,45.9,2,46,2,46c0,0.1-0.1,0.1-0.1,0.3c-0.1,0.7-0.1,1.2-0.2,1.7
		c-0.1,0.5-0.1,0.9-0.2,1.2c-0.1,0.3-0.1,0.6-0.2,0.9c-0.1,0.2-0.1,0.4-0.2,0.6C1,50.8,0.9,51,0.8,51.1c-0.1,0.1-0.2,0.2-0.3,0.4
		H0.2c-0.1,0-0.1,0-0.1,0.1c0,0,0,0.1,0,0.2v2c0,0,0,0,0,0.1c0,0,0,0,0.1,0c0,0,0.1,0,0.1,0c0,0,0.1,0,0.2,0c0.1,0,0.1,0,0.2,0
		c0,0,0.1,0,0.1,0c0,0,0,0,0.1,0c0,0,0,0,0-0.1v-1.5h4.7v1.5c0,0,0,0,0,0.1c0,0,0,0,0.1,0c0,0,0.1,0,0.1,0c0,0,0.1,0,0.2,0
		c0.1,0,0.1,0,0.2,0c0,0,0.1,0,0.1,0c0,0,0,0,0.1,0c0,0,0,0,0-0.1v-2c0-0.1,0-0.1,0-0.2C6,51.5,6,51.4,5.9,51.4z M4.5,51.4h-3
		c0.1-0.1,0.1-0.2,0.2-0.3c0.1-0.1,0.1-0.2,0.2-0.4c0.1-0.2,0.1-0.4,0.2-0.6c0.1-0.2,0.1-0.5,0.2-0.8c0.1-0.3,0.1-0.7,0.2-1.2
		c0.1-0.4,0.1-1,0.2-1.6h1.8V51.4z M34.6,45.2c0.1,0.1,0.3,0.2,0.5,0.3c0.2,0.1,0.4,0.1,0.6,0.1c0.3,0,0.5,0,0.7-0.1
		c0.2-0.1,0.3-0.2,0.5-0.3c0.1-0.1,0.2-0.2,0.3-0.4c0.1-0.1,0.1-0.3,0.1-0.5c0,0,0-0.1,0-0.1c0,0,0,0-0.1-0.1c0,0-0.1,0-0.1,0
		c0,0-0.1,0-0.2,0c-0.1,0-0.1,0-0.2,0c0,0-0.1,0-0.1,0c0,0,0,0,0,0.1c0,0,0,0.1,0,0.1c0,0.1,0,0.2,0,0.3c0,0.1-0.1,0.1-0.1,0.2
		c-0.1,0.1-0.1,0.1-0.2,0.1c-0.1,0-0.2,0.1-0.3,0.1c-0.1,0-0.2,0-0.3-0.1c-0.1,0-0.2-0.1-0.2-0.1C35,44.7,35,44.7,35,44.6
		c0-0.1,0-0.2,0-0.2c0,0,0-0.1,0-0.1c0,0,0,0,0-0.1c0,0-0.1,0-0.1,0c0,0-0.1,0-0.2,0c-0.1,0-0.1,0-0.2,0c0,0-0.1,0-0.1,0
		c0,0-0.1,0-0.1,0.1c0,0,0,0,0,0.1c0,0.2,0,0.4,0.1,0.5C34.3,45,34.4,45.1,34.6,45.2z M65.9,45.9c0,0-0.1,0-0.1,0c0,0-0.1,0-0.2,0
		c-0.1,0-0.1,0-0.2,0c0,0-0.1,0-0.1,0c0,0-0.1,0-0.1,0c0,0,0,0-0.1,0.1l-2.7,4c-0.1,0.1-0.1,0.2-0.2,0.3c-0.1,0.1-0.1,0.2-0.2,0.3h0
		c0-0.1,0-0.2,0-0.3c0-0.1,0-0.2,0-0.3V46c0,0,0,0,0-0.1c0,0,0,0-0.1,0c0,0-0.1,0-0.1,0c-0.1,0-0.1,0-0.2,0c-0.1,0-0.1,0-0.2,0
		c-0.1,0-0.1,0-0.1,0c0,0-0.1,0-0.1,0c0,0,0,0,0,0.1v6c0,0,0,0.1,0,0.1c0,0,0,0,0.1,0.1c0,0,0.1,0,0.1,0c0,0,0.1,0,0.2,0
		c0.1,0,0.1,0,0.2,0c0,0,0.1,0,0.1,0c0,0,0.1,0,0.1,0c0,0,0,0,0.1-0.1l2.7-4c0-0.1,0.1-0.1,0.1-0.2c0-0.1,0.1-0.1,0.1-0.2
		c0-0.1,0.1-0.1,0.1-0.2c0-0.1,0.1-0.1,0.1-0.1h0c0,0.1,0,0.2,0,0.3c0,0.1,0,0.2,0,0.3V52c0,0,0,0,0,0.1c0,0,0,0,0.1,0
		c0,0,0.1,0,0.1,0c0.1,0,0.1,0,0.2,0c0.1,0,0.1,0,0.2,0c0.1,0,0.1,0,0.1,0c0,0,0.1,0,0.1,0c0,0,0,0,0-0.1v-6
		C65.9,46,65.9,46,65.9,45.9C65.9,46,65.9,46,65.9,45.9z M72.6,51.4H72V46c0,0,0,0,0-0.1c0,0,0,0-0.1,0c0,0-0.1,0-0.1,0
		c-0.1,0-0.1,0-0.2,0c-0.1,0-0.1,0-0.2,0c-0.1,0-0.1,0-0.1,0c0,0-0.1,0-0.1,0c0,0,0,0,0,0.1v5.4h-2.8V46c0,0,0,0,0-0.1
		c0,0,0,0-0.1,0c0,0-0.1,0-0.1,0c-0.1,0-0.1,0-0.2,0c-0.1,0-0.1,0-0.2,0c-0.1,0-0.1,0-0.1,0c0,0-0.1,0-0.1,0c0,0,0,0,0,0.1v5.8
		c0,0.1,0,0.2,0.1,0.3c0.1,0.1,0.1,0.1,0.2,0.1h4.2v1.5c0,0,0,0,0,0.1c0,0,0,0,0.1,0c0,0,0.1,0,0.1,0c0,0,0.1,0,0.2,0
		c0.1,0,0.1,0,0.2,0c0,0,0.1,0,0.1,0c0,0,0,0,0.1,0c0,0,0,0,0-0.1v-2c0-0.1,0-0.1,0-0.2C72.8,51.4,72.7,51.4,72.6,51.4z M60.1,51.4
		h-0.6v-5.2c0-0.1,0-0.2-0.1-0.3c-0.1-0.1-0.1-0.1-0.2-0.1h-2.9c-0.1,0-0.2,0-0.2,0.1c0,0.1-0.1,0.1-0.1,0.3
		c-0.1,0.7-0.1,1.2-0.2,1.7c-0.1,0.5-0.1,0.9-0.2,1.2c-0.1,0.3-0.1,0.6-0.2,0.9c-0.1,0.2-0.1,0.4-0.2,0.6c-0.1,0.2-0.1,0.3-0.2,0.4
		c-0.1,0.1-0.2,0.2-0.3,0.4h-0.4c-0.1,0-0.1,0-0.1,0.1c0,0,0,0.1,0,0.2v2c0,0,0,0,0,0.1c0,0,0,0,0.1,0c0,0,0.1,0,0.1,0
		c0,0,0.1,0,0.2,0c0.1,0,0.1,0,0.2,0c0,0,0.1,0,0.1,0c0,0,0,0,0.1,0c0,0,0,0,0-0.1v-1.5h4.7v1.5c0,0,0,0,0,0.1c0,0,0,0,0.1,0
		c0,0,0.1,0,0.1,0c0,0,0.1,0,0.2,0c0.1,0,0.1,0,0.2,0c0,0,0.1,0,0.1,0c0,0,0,0,0.1,0c0,0,0,0,0-0.1v-2c0-0.1,0-0.1,0-0.2
		C60.2,51.5,60.1,51.4,60.1,51.4z M58.6,51.4h-3c0.1-0.1,0.1-0.2,0.2-0.3c0.1-0.1,0.1-0.2,0.2-0.4c0.1-0.2,0.1-0.4,0.2-0.6
		c0.1-0.2,0.1-0.5,0.2-0.8c0.1-0.3,0.1-0.7,0.2-1.2c0.1-0.4,0.1-1,0.2-1.6h1.8V51.4z M107.7,45.9c0,0-0.1,0-0.1,0c0,0-0.1,0-0.2,0
		c-0.1,0-0.1,0-0.2,0c0,0-0.1,0-0.1,0c0,0-0.1,0-0.1,0c0,0,0,0-0.1,0.1l-2.7,4c-0.1,0.1-0.1,0.2-0.2,0.3c-0.1,0.1-0.1,0.2-0.2,0.3h0
		c0-0.1,0-0.2,0-0.3s0-0.2,0-0.3V46c0,0,0,0,0-0.1c0,0,0,0-0.1,0c0,0-0.1,0-0.1,0c-0.1,0-0.1,0-0.2,0c-0.1,0-0.1,0-0.2,0
		c-0.1,0-0.1,0-0.1,0c0,0-0.1,0-0.1,0c0,0,0,0,0,0.1v6c0,0,0,0.1,0,0.1c0,0,0,0,0.1,0.1c0,0,0.1,0,0.1,0c0,0,0.1,0,0.2,0
		c0.1,0,0.1,0,0.2,0c0,0,0.1,0,0.1,0c0,0,0.1,0,0.1,0c0,0,0,0,0.1-0.1l2.7-4c0-0.1,0.1-0.1,0.1-0.2c0-0.1,0.1-0.1,0.1-0.2
		c0-0.1,0.1-0.1,0.1-0.2c0-0.1,0.1-0.1,0.1-0.1h0c0,0.1,0,0.2,0,0.3c0,0.1,0,0.2,0,0.3V52c0,0,0,0,0,0.1c0,0,0,0,0.1,0
		c0,0,0.1,0,0.1,0c0.1,0,0.1,0,0.2,0c0.1,0,0.1,0,0.2,0c0.1,0,0.1,0,0.1,0c0,0,0.1,0,0.1,0c0,0,0,0,0-0.1v-6
		C107.8,46,107.8,46,107.7,45.9C107.8,46,107.8,46,107.7,45.9z M121.4,51.5C121.4,51.5,121.3,51.5,121.4,51.5
		c-0.1-0.1-0.1-0.1-0.1-0.1h-2.5v-2.2h2.1c0,0,0,0,0.1,0c0,0,0,0,0.1-0.1c0,0,0-0.1,0-0.1c0,0,0-0.1,0-0.1c0-0.1,0-0.1,0-0.2
		c0,0,0-0.1,0-0.1c0,0,0,0-0.1-0.1c0,0,0,0-0.1,0h-2.1v-1.9h2.4c0,0,0,0,0.1,0c0,0,0,0,0.1-0.1c0,0,0-0.1,0-0.1c0,0,0-0.1,0-0.2
		c0-0.1,0-0.1,0-0.2c0,0,0-0.1,0-0.1c0,0,0,0-0.1-0.1c0,0,0,0-0.1,0h-2.9c-0.1,0-0.1,0-0.2,0.1c-0.1,0.1-0.1,0.1-0.1,0.3v5.5
		c0,0.1,0,0.2,0.1,0.3c0.1,0,0.1,0.1,0.2,0.1h3c0,0,0,0,0.1,0c0,0,0,0,0.1-0.1c0,0,0-0.1,0-0.1c0,0,0-0.1,0-0.2c0-0.1,0-0.1,0-0.2
		C121.4,51.6,121.4,51.6,121.4,51.5z M137.4,47.1c-0.1-0.2-0.2-0.4-0.3-0.5c-0.1-0.1-0.3-0.3-0.4-0.4c-0.2-0.1-0.3-0.2-0.5-0.2
		c-0.2,0-0.3-0.1-0.4-0.1c-0.1,0-0.3,0-0.4,0H134c-0.1,0-0.2,0-0.2,0.1c-0.1,0.1-0.1,0.1-0.1,0.3V52c0,0,0,0,0,0.1c0,0,0,0,0.1,0
		c0,0,0.1,0,0.1,0c0.1,0,0.1,0,0.2,0c0.1,0,0.1,0,0.2,0c0.1,0,0.1,0,0.1,0c0,0,0.1,0,0.1,0c0,0,0,0,0-0.1v-2.2h0.7
		c0.4,0,0.7,0,1-0.1c0.3-0.1,0.5-0.2,0.7-0.4c0.2-0.2,0.3-0.4,0.4-0.6c0.1-0.3,0.2-0.5,0.2-0.8C137.5,47.5,137.4,47.3,137.4,47.1z
		 M136.5,48.3c-0.1,0.2-0.1,0.3-0.3,0.4c-0.1,0.1-0.3,0.2-0.4,0.3c-0.2,0.1-0.4,0.1-0.6,0.1h-0.7v-2.5h0.8c0.1,0,0.3,0,0.4,0
		c0.1,0,0.3,0.1,0.4,0.2c0.1,0.1,0.3,0.2,0.4,0.4c0.1,0.2,0.1,0.4,0.1,0.6C136.6,48,136.6,48.2,136.5,48.3z M101.4,45.9
		c0,0-0.1,0-0.1,0c0,0-0.1,0-0.2,0c-0.1,0-0.1,0-0.2,0c0,0-0.1,0-0.1,0c0,0-0.1,0-0.1,0c0,0,0,0-0.1,0.1l-2.7,4
		c-0.1,0.1-0.1,0.2-0.2,0.3c-0.1,0.1-0.1,0.2-0.2,0.3h0c0-0.1,0-0.2,0-0.3s0-0.2,0-0.3V46c0,0,0,0,0-0.1c0,0,0,0-0.1,0
		c0,0-0.1,0-0.1,0c-0.1,0-0.1,0-0.2,0c-0.1,0-0.1,0-0.2,0c-0.1,0-0.1,0-0.1,0c0,0-0.1,0-0.1,0c0,0,0,0,0,0.1v6c0,0,0,0.1,0,0.1
		c0,0,0,0,0.1,0.1c0,0,0.1,0,0.1,0c0,0,0.1,0,0.2,0c0.1,0,0.1,0,0.2,0c0,0,0.1,0,0.1,0c0,0,0.1,0,0.1,0c0,0,0,0,0.1-0.1l2.7-4
		c0-0.1,0.1-0.1,0.1-0.2c0-0.1,0.1-0.1,0.1-0.2c0-0.1,0.1-0.1,0.1-0.2c0-0.1,0.1-0.1,0.1-0.1h0c0,0.1,0,0.2,0,0.3c0,0.1,0,0.2,0,0.3
		V52c0,0,0,0,0,0.1c0,0,0,0,0.1,0c0,0,0.1,0,0.1,0c0.1,0,0.1,0,0.2,0c0.1,0,0.1,0,0.2,0c0.1,0,0.1,0,0.1,0c0,0,0.1,0,0.1,0
		c0,0,0,0,0-0.1v-6C101.5,46,101.5,46,101.4,45.9C101.5,46,101.5,46,101.4,45.9z M95.6,51.7L95,50.3c-0.1-0.2-0.2-0.4-0.2-0.5
		c-0.1-0.1-0.2-0.3-0.3-0.4c-0.1-0.1-0.2-0.2-0.3-0.3c-0.1-0.1-0.3-0.1-0.4-0.2v0c0.1,0,0.2-0.1,0.4-0.2c0.1-0.1,0.2-0.1,0.3-0.3
		c0.1-0.1,0.2-0.2,0.2-0.4c0.1-0.1,0.1-0.3,0.2-0.5l0.5-1.3c0-0.1,0-0.1,0-0.2c0,0,0-0.1,0-0.1c0,0,0,0,0-0.1c0,0,0,0-0.1,0
		c0,0-0.1,0-0.1,0c-0.1,0-0.1,0-0.2,0c-0.1,0-0.2,0-0.2,0c-0.1,0-0.1,0-0.1,0c0,0-0.1,0-0.1,0.1c0,0,0,0.1,0,0.1l-0.5,1.4
		C94,47.6,94,47.8,93.9,48c-0.1,0.1-0.2,0.3-0.3,0.4c-0.1,0.1-0.2,0.2-0.4,0.2c-0.1,0-0.3,0.1-0.5,0.1h-0.3V46c0,0,0,0,0-0.1
		c0,0,0,0-0.1,0c0,0-0.1,0-0.1,0c-0.1,0-0.1,0-0.2,0c-0.1,0-0.1,0-0.2,0c-0.1,0-0.1,0-0.1,0c0,0-0.1,0-0.1,0c0,0,0,0,0,0.1v6
		c0,0,0,0,0,0.1c0,0,0,0,0.1,0c0,0,0.1,0,0.1,0c0.1,0,0.1,0,0.2,0c0.1,0,0.1,0,0.2,0c0.1,0,0.1,0,0.1,0c0,0,0.1,0,0.1,0
		c0,0,0,0,0-0.1v-2.7h0.3c0.2,0,0.4,0,0.5,0.1c0.2,0,0.3,0.1,0.4,0.2c0.1,0.1,0.2,0.2,0.3,0.4c0.1,0.1,0.2,0.3,0.3,0.5l0.6,1.5
		c0,0,0,0.1,0,0.1c0,0,0,0,0.1,0.1c0,0,0.1,0,0.1,0c0.1,0,0.1,0,0.2,0c0.1,0,0.1,0,0.2,0c0.1,0,0.1,0,0.1,0c0,0,0.1,0,0.1,0
		c0,0,0,0,0-0.1c0,0,0-0.1,0-0.1C95.6,51.9,95.6,51.8,95.6,51.7z M104.4,45.2c0.1,0.1,0.3,0.2,0.5,0.3c0.2,0.1,0.4,0.1,0.6,0.1
		c0.3,0,0.5,0,0.7-0.1c0.2-0.1,0.3-0.2,0.5-0.3c0.1-0.1,0.2-0.2,0.3-0.4c0.1-0.1,0.1-0.3,0.1-0.5c0,0,0-0.1,0-0.1c0,0,0,0-0.1-0.1
		c0,0-0.1,0-0.1,0c0,0-0.1,0-0.2,0c-0.1,0-0.1,0-0.2,0c0,0-0.1,0-0.1,0c0,0,0,0,0,0.1c0,0,0,0.1,0,0.1c0,0.1,0,0.2,0,0.3
		c0,0.1-0.1,0.1-0.1,0.2c-0.1,0.1-0.1,0.1-0.2,0.1c-0.1,0-0.2,0.1-0.3,0.1c-0.1,0-0.2,0-0.3-0.1c-0.1,0-0.2-0.1-0.2-0.1
		c-0.1-0.1-0.1-0.1-0.1-0.2c0-0.1,0-0.2,0-0.2c0,0,0-0.1,0-0.1c0,0,0,0,0-0.1c0,0-0.1,0-0.1,0c0,0-0.1,0-0.2,0c-0.1,0-0.1,0-0.2,0
		c0,0-0.1,0-0.1,0c0,0-0.1,0-0.1,0.1c0,0,0,0,0,0.1c0,0.2,0,0.4,0.1,0.5C104.2,45,104.3,45.1,104.4,45.2z M132.7,46
		C132.7,46,132.7,46,132.7,46c-0.1-0.1-0.1-0.1-0.1-0.1h-4.3c0,0,0,0-0.1,0c0,0,0,0-0.1,0.1c0,0,0,0.1,0,0.1c0,0,0,0.1,0,0.2
		c0,0.1,0,0.1,0,0.2c0,0,0,0.1,0,0.1c0,0,0,0,0.1,0.1c0,0,0,0,0.1,0h1.7V52c0,0,0,0,0,0.1c0,0,0,0,0.1,0c0,0,0.1,0,0.1,0
		c0.1,0,0.1,0,0.2,0c0.1,0,0.1,0,0.2,0c0.1,0,0.1,0,0.1,0c0,0,0.1,0,0.1,0c0,0,0,0,0-0.1v-5.4h1.7c0,0,0,0,0.1,0c0,0,0,0,0.1-0.1
		c0,0,0-0.1,0-0.1c0,0,0-0.1,0-0.2c0-0.1,0-0.1,0-0.2C132.7,46.1,132.7,46,132.7,46z M127.1,45.9c0,0-0.1,0-0.1,0
		c-0.1,0-0.1,0-0.2,0c-0.1,0-0.2,0-0.2,0c-0.1,0-0.1,0-0.1,0c0,0-0.1,0-0.1,0c0,0,0,0,0,0.1v2.5h-2.8V46c0,0,0,0,0-0.1
		c0,0,0,0-0.1,0c0,0-0.1,0-0.1,0c-0.1,0-0.1,0-0.2,0c-0.1,0-0.1,0-0.2,0c-0.1,0-0.1,0-0.1,0c0,0-0.1,0-0.1,0c0,0,0,0,0,0.1v6
		c0,0,0,0,0,0.1c0,0,0,0,0.1,0c0,0,0.1,0,0.1,0c0.1,0,0.1,0,0.2,0c0.1,0,0.1,0,0.2,0c0.1,0,0.1,0,0.1,0c0,0,0.1,0,0.1,0
		c0,0,0,0,0-0.1v-2.8h2.8V52c0,0,0,0,0,0.1c0,0,0,0,0.1,0c0,0,0.1,0,0.1,0c0.1,0,0.1,0,0.2,0c0.1,0,0.1,0,0.2,0c0.1,0,0.1,0,0.1,0
		c0,0,0.1,0,0.1,0c0,0,0,0,0-0.1v-6C127.2,46,127.2,46,127.1,45.9C127.2,46,127.2,45.9,127.1,45.9z M78.4,45.9c0,0-0.1,0-0.1,0
		c0,0-0.1,0-0.2,0c-0.1,0-0.1,0-0.2,0c0,0-0.1,0-0.1,0c0,0-0.1,0-0.1,0c0,0,0,0-0.1,0.1l-2.7,4c-0.1,0.1-0.1,0.2-0.2,0.3
		c-0.1,0.1-0.1,0.2-0.2,0.3h0c0-0.1,0-0.2,0-0.3s0-0.2,0-0.3V46c0,0,0,0,0-0.1c0,0,0,0-0.1,0c0,0-0.1,0-0.1,0c-0.1,0-0.1,0-0.2,0
		c-0.1,0-0.1,0-0.2,0c-0.1,0-0.1,0-0.1,0c0,0-0.1,0-0.1,0c0,0,0,0,0,0.1v6c0,0,0,0.1,0,0.1c0,0,0,0,0.1,0.1c0,0,0.1,0,0.1,0
		c0,0,0.1,0,0.2,0c0.1,0,0.1,0,0.2,0c0,0,0.1,0,0.1,0c0,0,0.1,0,0.1,0c0,0,0,0,0.1-0.1l2.7-4c0-0.1,0.1-0.1,0.1-0.2
		c0-0.1,0.1-0.1,0.1-0.2c0-0.1,0.1-0.1,0.1-0.2c0-0.1,0.1-0.1,0.1-0.1h0c0,0.1,0,0.2,0,0.3c0,0.1,0,0.2,0,0.3V52c0,0,0,0,0,0.1
		c0,0,0,0,0.1,0c0,0,0.1,0,0.1,0c0.1,0,0.1,0,0.2,0c0.1,0,0.1,0,0.2,0c0.1,0,0.1,0,0.1,0c0,0,0.1,0,0.1,0c0,0,0,0,0-0.1v-6
		C78.5,46,78.5,46,78.4,45.9C78.5,46,78.5,46,78.4,45.9z M90.4,51C90.4,50.9,90.4,50.9,90.4,51C90.3,50.9,90.3,50.9,90.4,51
		c-0.1-0.1-0.2,0-0.3,0c-0.1,0.1-0.2,0.1-0.3,0.2c-0.1,0.1-0.3,0.1-0.5,0.2c-0.2,0.1-0.4,0.1-0.6,0.1c-0.3,0-0.6-0.1-0.8-0.2
		c-0.2-0.1-0.4-0.3-0.6-0.5c-0.2-0.2-0.3-0.5-0.4-0.8c-0.1-0.3-0.1-0.7-0.1-1c0-0.4,0-0.7,0.1-1.1c0.1-0.3,0.2-0.6,0.4-0.8
		s0.4-0.4,0.6-0.5c0.2-0.1,0.5-0.2,0.8-0.2c0.3,0,0.5,0,0.7,0.1c0.2,0.1,0.3,0.1,0.5,0.2c0.1,0.1,0.2,0.1,0.3,0.2
		c0.1,0.1,0.1,0.1,0.2,0.1c0,0,0,0,0.1,0c0,0,0,0,0-0.1c0,0,0-0.1,0-0.1c0,0,0-0.1,0-0.2c0-0.1,0-0.1,0-0.1c0,0,0-0.1,0-0.1
		c0,0,0-0.1,0-0.1c0,0,0-0.1-0.1-0.1c0,0-0.1-0.1-0.2-0.2c-0.1-0.1-0.2-0.1-0.4-0.2c-0.1-0.1-0.3-0.1-0.5-0.1c-0.2,0-0.3,0-0.5,0
		c-0.4,0-0.8,0.1-1.1,0.2c-0.3,0.1-0.6,0.4-0.9,0.6c-0.2,0.3-0.4,0.6-0.6,1c-0.1,0.4-0.2,0.9-0.2,1.4c0,0.5,0.1,0.9,0.2,1.3
		c0.1,0.4,0.3,0.7,0.5,1c0.2,0.3,0.5,0.5,0.8,0.6c0.3,0.1,0.7,0.2,1.1,0.2c0.2,0,0.4,0,0.6-0.1c0.2,0,0.4-0.1,0.5-0.2
		c0.2-0.1,0.3-0.1,0.4-0.2c0.1-0.1,0.2-0.1,0.2-0.1c0,0,0.1-0.1,0.1-0.1c0,0,0,0,0-0.1c0,0,0-0.1,0-0.1c0,0,0-0.1,0-0.1
		c0-0.1,0-0.1,0-0.2C90.4,51,90.4,51,90.4,51z M84.5,45.9c0,0-0.1,0-0.1,0c-0.1,0-0.1,0-0.2,0c-0.1,0-0.2,0-0.2,0
		c-0.1,0-0.1,0-0.1,0c0,0-0.1,0-0.1,0c0,0,0,0,0,0.1v2.5H81V46c0,0,0,0,0-0.1c0,0,0,0-0.1,0c0,0-0.1,0-0.1,0c-0.1,0-0.1,0-0.2,0
		c-0.1,0-0.1,0-0.2,0c-0.1,0-0.1,0-0.1,0c0,0-0.1,0-0.1,0c0,0,0,0,0,0.1v6c0,0,0,0,0,0.1c0,0,0,0,0.1,0c0,0,0.1,0,0.1,0
		c0.1,0,0.1,0,0.2,0c0.1,0,0.1,0,0.2,0c0.1,0,0.1,0,0.1,0c0,0,0.1,0,0.1,0c0,0,0,0,0-0.1v-2.8h2.8V52c0,0,0,0,0,0.1c0,0,0,0,0.1,0
		c0,0,0.1,0,0.1,0c0.1,0,0.1,0,0.2,0c0.1,0,0.1,0,0.2,0c0.1,0,0.1,0,0.1,0c0,0,0.1,0,0.1,0c0,0,0,0,0-0.1v-6
		C84.6,46,84.6,46,84.5,45.9C84.6,46,84.6,45.9,84.5,45.9z M116.7,51.4h-0.6V46c0,0,0,0,0-0.1c0,0,0,0-0.1,0c0,0-0.1,0-0.1,0
		c-0.1,0-0.1,0-0.2,0c-0.1,0-0.1,0-0.2,0c-0.1,0-0.1,0-0.1,0c0,0-0.1,0-0.1,0c0,0,0,0,0,0.1v5.4h-2.8V46c0,0,0,0,0-0.1
		c0,0,0,0-0.1,0c0,0-0.1,0-0.1,0c-0.1,0-0.1,0-0.2,0c-0.1,0-0.1,0-0.2,0c-0.1,0-0.1,0-0.1,0c0,0-0.1,0-0.1,0c0,0,0,0,0,0.1v5.8
		c0,0.1,0,0.2,0.1,0.3c0.1,0.1,0.1,0.1,0.2,0.1h4.2v1.5c0,0,0,0,0,0.1c0,0,0,0,0.1,0c0,0,0.1,0,0.1,0c0,0,0.1,0,0.2,0
		c0.1,0,0.1,0,0.2,0c0,0,0.1,0,0.1,0c0,0,0,0,0.1,0c0,0,0,0,0-0.1v-2c0-0.1,0-0.1,0-0.2C116.8,51.4,116.8,51.4,116.7,51.4z"/>
</g>
</svg>
