<svg 
 xmlns="http://www.w3.org/2000/svg"
 xmlns:xlink="http://www.w3.org/1999/xlink"
 width="128px" height="36px">
<path fill-rule="evenodd"  fill="rgb(228, 31, 37)"
 d="M18.234,0.353 C7.406,0.353 -0.001,8.333 -0.001,18.176 C-0.001,28.020 7.406,35.999 18.234,35.999 C28.726,35.999 36.006,28.506 36.447,19.084 L127.156,19.084 C128.325,19.084 128.222,17.268 127.166,17.268 L36.447,17.268 C36.006,7.846 28.726,0.353 18.234,0.353 "/>
<path fill-rule="evenodd"  fill="rgb(255, 255, 255)"
 d="M4.406,22.672 C4.300,23.139 4.595,23.604 5.072,23.711 C5.548,23.818 6.022,23.526 6.132,23.059 L7.661,16.568 C7.680,16.488 7.796,16.497 7.803,16.583 L8.760,27.829 C8.869,29.103 10.867,28.971 11.046,27.993 L13.613,13.971 C13.632,13.865 13.778,13.864 13.780,13.967 L14.101,30.204 C14.139,32.115 16.861,32.009 17.124,30.673 L20.405,14.009 C20.421,13.930 20.555,13.927 20.557,14.023 L20.884,29.757 C20.918,31.399 23.353,31.311 23.617,30.027 L26.671,15.140 C26.688,15.055 26.805,15.072 26.808,15.141 L27.211,25.466 C27.264,26.815 29.386,26.672 29.610,25.690 L32.357,13.688 C32.619,12.546 30.889,12.188 30.638,13.274 L29.210,19.450 C29.187,19.552 29.073,19.548 29.069,19.440 L28.632,8.587 C28.575,7.179 26.179,6.920 25.890,8.441 L23.364,21.735 C23.341,21.853 23.209,21.853 23.206,21.741 L22.876,6.291 C22.842,4.699 19.901,4.414 19.558,6.204 L16.551,21.879 C16.529,21.995 16.394,21.959 16.393,21.876 L16.232,6.116 C16.215,4.512 13.355,4.229 13.022,5.986 L10.149,21.157 C10.132,21.247 10.004,21.241 10.001,21.160 L9.499,9.638 C9.451,8.541 7.558,8.738 7.342,9.695 L4.406,22.672 Z"/>
<path fill-rule="evenodd"  fill="rgb(56, 56, 56)"
 d="M54.279,10.638 C54.299,8.557 57.495,9.041 58.499,9.342 L58.499,11.649 C58.019,11.997 57.190,12.284 56.409,12.307 C55.306,12.339 54.267,11.872 54.279,10.638 M59.077,14.440 L60.994,14.440 L60.994,7.436 C60.994,4.416 59.353,3.189 56.393,3.108 C55.057,3.073 53.621,3.310 52.327,3.642 L52.725,5.848 C53.796,5.494 55.209,5.278 56.335,5.354 C58.175,5.478 58.538,6.194 58.471,7.419 C57.792,7.264 57.047,7.177 56.309,7.183 C53.967,7.203 51.688,8.169 51.772,10.953 C51.847,13.407 53.860,14.464 55.916,14.459 C56.967,14.456 58.041,14.199 58.849,13.661 L59.077,14.440 ZM117.680,3.213 L117.680,14.440 L119.979,14.440 L120.044,14.440 L124.625,6.902 L124.625,14.440 L126.891,14.440 L126.891,3.213 L124.625,3.213 L124.543,3.213 L119.979,10.719 L119.979,3.213 L117.680,3.213 ZM119.407,1.330 C120.040,1.983 121.110,2.357 122.192,2.375 C123.336,2.394 124.495,2.020 125.164,1.330 L124.306,-0.000 C123.141,0.907 121.446,0.915 120.281,0.008 L119.407,1.330 ZM102.956,3.213 L102.956,14.440 L107.660,14.440 C109.784,14.440 111.457,13.041 111.457,10.896 C111.457,8.742 109.791,7.351 107.660,7.351 L105.369,7.351 L105.369,3.213 L102.956,3.213 ZM107.660,9.452 C108.531,9.452 109.045,10.064 109.045,10.896 C109.045,11.720 108.513,12.323 107.660,12.323 L105.369,12.323 L105.369,9.452 L107.660,9.452 ZM112.615,3.213 L112.615,14.440 L115.061,14.440 L115.061,3.213 L112.615,3.213 ZM93.518,3.213 L91.089,3.213 L91.089,14.440 L93.518,14.440 L93.518,9.837 L97.908,9.837 L97.908,14.440 L100.337,14.440 L100.337,3.213 L97.908,3.213 L97.908,7.736 L93.518,7.736 L93.518,3.213 ZM83.746,14.440 L83.746,10.382 L85.979,10.382 C88.118,10.373 89.745,8.929 89.745,6.790 C89.721,4.674 88.104,3.222 85.979,3.213 L81.317,3.213 L81.317,14.440 L83.746,14.440 ZM85.979,5.331 C86.849,5.340 87.333,5.975 87.333,6.790 C87.333,7.615 86.865,8.255 85.979,8.265 L83.746,8.265 L83.746,5.331 L85.979,5.331 ZM79.240,3.213 L72.031,3.213 L72.031,14.440 L79.240,14.440 L79.240,12.323 L74.461,12.323 L74.461,9.837 L78.525,9.837 L78.525,7.736 L74.461,7.736 L74.461,5.331 L79.240,5.331 L79.240,3.213 ZM62.881,5.543 C63.328,5.387 64.496,5.184 65.543,5.213 C66.570,5.242 67.493,5.544 67.486,6.289 C67.476,7.392 66.293,7.504 65.433,7.504 L64.145,7.504 L64.145,9.526 L65.203,9.526 C66.246,9.526 67.867,9.619 67.868,10.931 C67.869,12.197 66.448,12.445 65.452,12.448 C64.634,12.451 63.589,12.264 62.805,12.036 L62.525,14.002 C63.408,14.317 64.500,14.541 65.605,14.541 C68.009,14.540 70.299,13.615 70.294,10.988 C70.291,9.807 69.675,8.883 68.585,8.379 C69.382,7.873 69.949,6.979 69.927,6.040 C69.874,3.842 67.751,3.181 65.619,3.116 C64.412,3.080 63.189,3.273 62.310,3.570 L62.881,5.543 ZM49.595,14.440 L49.595,3.213 L42.005,3.213 C41.909,5.341 41.731,10.936 40.457,11.963 C40.159,12.202 39.810,12.269 39.430,12.259 L39.430,14.440 C40.400,14.524 41.372,14.405 42.115,13.737 C43.885,12.147 44.185,7.582 44.308,5.331 L47.167,5.331 L47.167,14.440 L49.595,14.440 ZM86.325,32.471 L86.325,28.413 L88.559,28.413 C90.697,28.404 92.325,26.960 92.325,24.821 C92.300,22.705 90.683,21.254 88.559,21.244 L83.896,21.244 L83.896,32.471 L86.325,32.471 ZM88.559,23.361 C89.428,23.371 89.912,24.006 89.912,24.821 C89.912,25.646 89.444,26.286 88.559,26.296 L86.325,26.296 L86.325,23.361 L88.559,23.361 ZM73.939,23.361 L76.876,23.361 L76.876,32.471 L79.305,32.471 L79.305,23.361 L82.242,23.361 L82.242,21.244 L73.939,21.244 L73.939,23.361 ZM65.372,21.244 L62.942,21.244 L62.942,32.471 L65.372,32.471 L65.372,27.868 L69.838,27.868 L69.838,32.471 L72.268,32.471 L72.268,21.244 L69.838,21.244 L69.838,25.767 L65.372,25.767 L65.372,21.244 ZM60.871,21.244 L53.438,21.244 L53.438,32.471 L60.871,32.471 L60.871,30.354 L55.866,30.354 L55.866,27.868 L60.268,27.868 L60.268,25.767 L55.866,25.767 L55.866,23.361 L60.871,23.361 L60.871,21.244 ZM49.864,21.244 L47.435,21.244 L47.435,30.354 L42.890,30.354 L42.890,21.244 L40.445,21.244 L40.445,32.471 L49.310,32.471 L49.538,34.941 L51.739,34.941 L51.739,30.354 L49.864,30.354 L49.864,21.244 Z"/>
</svg>