<?xml version="1.0" encoding="utf-8"?>
<!-- Generator: Adobe Illustrator 23.0.2, SVG Export Plug-In . SVG Version: 6.00 Build 0)  -->
<svg version="1.1" id="Layer_1" xmlns="http://www.w3.org/2000/svg" xmlns:xlink="http://www.w3.org/1999/xlink" x="0px" y="0px"
	 viewBox="0 0 460.4 180" style="enable-background:new 0 0 460.4 180;" xml:space="preserve">
<style type="text/css">
	.st0{fill:#00B156;}
	.st1{fill:#FFFFFF;}
	.st2{fill:none;}
</style>
<g>
	<g>
		<path class="st0" d="M140,87.1c0-9.3-2.6-17.9-7.2-25.2l17.9-18.8l-5.8-5.5L128,55.4c-8.7-9.8-21.4-16-35.5-16
			C66.2,39.4,45,60.8,45,87.1c0,3.8,0.4,7.4,1.3,10.9c-7.8,1.8-13.6,8.8-13.6,17.1c0,9.7,7.8,17.6,17.5,17.6
			c5.8,0,10.9-2.8,14.1-7.2c7.9,5.9,17.7,9.3,28.2,9.3s20.2-3.4,28-9.2l16.2,17.8l5.9-5.4l-16.1-17.6
			C134.9,111.8,140,100.1,140,87.1z"/>
		<g>
			<path class="st1" d="M116.7,106.7c-9.2,6.4-21.9,7.2-32.3,0.8C70.5,99,66.1,81,74.5,67.3c3.2-5.2,7.8-9.1,13-11.3
				c-11,0.1-21.6,5.6-27.7,15.6c-9.5,15.5-4.4,35.9,11.3,45.5S107.2,122,116.7,106.7z"/>
		</g>
	</g>
	<g>
		<path class="st1" d="M59.1,122.4c-3.4,2.4-8.1,2.6-11.9,0.3c-5.1-3.1-6.8-9.8-3.7-14.8c1.2-1.9,2.9-3.3,4.8-4.2
			c-4,0-8,2.1-10.2,5.7c-3.5,5.7-1.6,13.2,4.2,16.8C48.1,129.7,55.6,128,59.1,122.4z"/>
	</g>
	<g>
		<g>
			<path class="st0" d="M159.6,149.2c0,9.7-7.8,17.6-17.5,17.6s-17.5-7.9-17.5-17.6s7.8-17.6,17.5-17.6S159.6,139.5,159.6,149.2z"/>
		</g>
		<g>
			<path class="st1" d="M151,156.4c-3.4,2.4-8.1,2.6-11.9,0.3c-5.1-3.1-6.8-9.8-3.7-14.8c1.2-1.9,2.9-3.3,4.8-4.2
				c-4.1,0-8,2.1-10.2,5.7c-3.5,5.7-1.6,13.2,4.2,16.8C140,163.8,147.5,162.1,151,156.4z"/>
		</g>
	</g>
	<g>
		<g>
			<path class="st0" d="M172.4,31.8c0,9.7-7.8,17.6-17.5,17.6s-17.5-7.9-17.5-17.6s7.8-17.6,17.5-17.6S172.4,22.1,172.4,31.8z"/>
		</g>
		<g>
			<path class="st1" d="M163.9,39c-3.4,2.4-8.1,2.6-11.9,0.3c-5.1-3.1-6.8-9.8-3.7-14.8c1.2-1.9,2.9-3.3,4.8-4.2
				c-4.1,0-8,2.1-10.2,5.7c-3.5,5.7-1.6,13.2,4.2,16.8C152.9,46.4,160.4,44.7,163.9,39z"/>
		</g>
	</g>
	<g>
		<path class="st0" d="M392,80.3c2.3-1.5,3.7-3.9,3.7-6.5s-1-4.7-2.9-6.1c-2.1-1.7-4.8-2.4-8.9-2.4c-2.6,0-5.4,0.2-7.3,0.7l-0.8,0.2
			v31.3l0.9,0.1c1,0.1,3.1,0.4,6.2,0.4c5.3,0,8.8-1,11.1-3.1c1.9-1.8,2.9-4.1,2.9-6.8C396.8,84.1,394.5,81.6,392,80.3z M384.2,78.2
			h-2.5v-7.8c0.7-0.1,1.5-0.1,2.4-0.1c5.6,0,5.6,2.9,5.6,3.9C389.7,76.7,387.6,78.2,384.2,78.2z M383.9,92.8c-0.9,0-1.7,0-2.3-0.1
			v-9.6h2.2c2,0,6.8,0.5,6.8,4.8C390.7,92,387,92.8,383.9,92.8z"/>
		<rect x="400" y="65.5" class="st0" width="5.9" height="32.1"/>
		<path class="st0" d="M423.9,65c-8.8,0-15,6.9-15,16.8c0,9.6,6,16.3,14.5,16.3c10.4,0,15-8.5,15-16.9C438.4,71.5,432.6,65,423.9,65
			z M423.7,92.9c-5.9,0-8.6-5.8-8.6-11.2c0-5.8,2.7-11.6,8.6-11.6s8.6,5.8,8.6,11.2C432.3,87.2,429.6,92.9,423.7,92.9z"/>
	</g>
	<g>
		<path d="M159.7,62.1c-3.5,3.3-4.8,8.6-4.8,14.4v1.9h-5.8v5.7h5.8v35.4h7.4V84.1h9.9v-5.7h-9.9v-2.2c0-6.3,1.6-11.9,8-11.9
			c2.1,0,3.6,0.4,4.8,0.9l1-5.8c-1.4-0.6-3.7-1.2-6.4-1.2C166.2,58.3,162.5,59.4,159.7,62.1z"/>
		<path d="M185.8,86.5h-0.3l-0.2-8.1h-6.5c0.2,3.8,0.3,8,0.3,12.8v28.3h7.4V97.6c0-1.3,0.2-2.5,0.3-3.5c1-5.6,4.8-9.6,10-9.6
			c1,0,1.8,0.1,2.6,0.2v-7.1c-0.7-0.2-1.3-0.2-2.1-0.2C192.1,77.5,187.6,80.9,185.8,86.5z"/>
		<path d="M235.2,94.3c0-8.2-3.1-16.8-15.6-16.8c-5.2,0-10.1,1.4-13.5,3.7l1.7,4.9c2.9-1.9,6.9-3.1,10.7-3.1c8.4,0,9.4,6.1,9.4,9.5
			v0.8c-15.9-0.1-24.7,5.3-24.7,15.3c0,5.9,4.2,11.8,12.6,11.8c5.9,0,10.3-2.9,12.6-6.1h0.3l0.6,5.2h6.8c-0.5-2.8-0.7-6.3-0.7-9.8
			V94.3H235.2z M228,105.7c0,0.8-0.2,1.6-0.4,2.4c-1.2,3.5-4.6,6.9-9.9,6.9c-3.8,0-7.1-2.3-7.1-7.1c0-8,9.3-9.4,17.4-9.3V105.7z"/>
		<path d="M266.4,83.5c4.1,0,6.9,0.9,8.7,1.9l1.7-5.8c-2-1-6-2.1-10.4-2.1c-13.4,0-22.1,9.2-22.1,21.8s8.1,21.1,20.5,21.1
			c5.5,0,9.9-1.4,11.8-2.5l-1.3-5.6c-2.1,0.9-4.9,2-9.2,2c-8.2,0-14.3-5.9-14.3-15.4C251.9,90.5,257,83.5,266.4,83.5z"/>
		<path d="M295.4,68.6l-7.3,2.3v7.6h-6.4v5.7h6.4v22.4c0,4.8,0.8,8.5,2.9,10.7c1.8,2,4.6,3.2,8.1,3.2c2.9,0,5.2-0.5,6.6-1.1
			l-0.3-5.6c-1.1,0.3-2.3,0.5-4.3,0.5c-4.2,0-5.6-2.9-5.6-8V84.1h10.7v-5.7h-10.7L295.4,68.6L295.4,68.6z"/>
		<path d="M343.4,94.3c0-8.2-3.1-16.8-15.6-16.8c-5.2,0-10.1,1.4-13.5,3.7l1.7,4.9c2.9-1.9,6.9-3.1,10.7-3.1c8.4,0,9.3,6.1,9.3,9.5
			v0.8c-15.9-0.1-24.7,5.3-24.7,15.3c0,5.9,4.2,11.8,12.6,11.8c5.9,0,10.3-2.9,12.6-6.1h0.3l0.6,5.2h6.8c-0.5-2.8-0.7-6.3-0.7-9.8
			L343.4,94.3L343.4,94.3z M336.2,105.7c0,0.8-0.2,1.6-0.4,2.4c-1.2,3.5-4.6,6.9-9.9,6.9c-3.8,0-7-2.3-7-7.1c0-8,9.3-9.4,17.4-9.3
			v7.1H336.2z"/>
		<path d="M375,100.4v2.2c0,6.3-1.6,11.9-8,11.9c-2.1,0-7.5-0.2-7.6-14.1V59.2h-7.5v42.3l0,0c0.4,19.2,13,19.1,15.6,19.1
			c3.5,0,7.2-1.1,10-3.8c3.5-3.3,4.8-8.6,4.8-14.4v-2L375,100.4L375,100.4z"/>
	</g>
	<rect x="-0.1" class="st2" width="460.5" height="180"/>
</g>
</svg>
