<svg width="123" height="86" viewBox="0 0 123 86" fill="none" xmlns="http://www.w3.org/2000/svg">
<path d="M56.6282 48.218V86H51.0812V64.4517L45.7753 80.3472H43.3635L38.0576 64.4517V86H32.5106V48.218H37.4306L44.5212 69.8629L51.6118 48.218H56.6282Z" fill="#00ABE5"/>
<path d="M63.3812 48.218H78.6718V53.4359H68.88V63.6303H76.5012V68.8483H68.88V80.6854H78.9129V86H63.3329V48.218H63.3812Z" fill="#00ABE5"/>
<path d="M84.4118 48.218H92.7565C98.2553 48.218 102.066 52.1314 102.066 58.1708V76.0472C102.066 82.0382 98.2553 86 92.7565 86H84.4118V48.218ZM92.66 80.782C94.9271 80.782 96.5188 79.3326 96.5188 75.9022V58.3157C96.5188 54.9337 94.9271 53.4359 92.66 53.4359H89.9588V80.7337H92.66V80.782Z" fill="#00ABE5"/>
<path d="M62.5612 0L55.76 37.782H50.4541L46.0165 12.9966L41.5788 37.782H36.2729L29.4235 0H35.2118L39.0223 24.3989L43.4118 0H48.3318H48.6212L52.9623 24.3989L56.7729 0H62.5612Z" fill="#00ABE5"/>
<path d="M65.3106 0H80.6012V5.21798H70.8094V15.4607H78.4306V20.6787H70.8094V32.5157H80.8424V37.7337H65.2624V0H65.3106Z" fill="#00ABE5"/>
<path d="M102.741 24.3989V28.9405C102.741 33.8685 99.3647 37.782 94.0106 37.782H85.4729V0H93.1906C98.5447 0 101.921 3.91348 101.921 8.84157V11.9337C101.921 15.2674 100.329 17.0551 98.4 17.8281C101.101 18.891 102.741 21.0169 102.741 24.3989ZM91.02 5.21798V15.509H93.0459C95.2165 15.509 96.4223 14.0596 96.4223 11.7404V8.9382C96.4223 6.66742 95.2165 5.16966 93.0459 5.16966H91.02V5.21798ZM97.1941 24.5438C97.1941 22.273 95.9882 20.7753 93.8176 20.7753H90.9718V32.5157H93.8176C95.9882 32.5157 97.1941 31.0663 97.1941 28.7472V24.5438Z" fill="#00ABE5"/>
<path d="M1.44706 74.9843H0V86H1.44706V74.9843Z" fill="#00ABE5"/>
<path d="M10.9494 74.7427C10.1776 74.7427 9.59882 75.3225 9.59882 76.5786V81.9416C9.59882 83.1977 10.1776 83.7775 10.9494 83.7775C11.7212 83.7775 12.3 83.1977 12.3 81.9416V76.5786C12.3 75.3708 11.7212 74.7427 10.9494 74.7427Z" fill="#00ABE5"/>
<path d="M19.3423 76.3854V86H22.0435V74.9843H20.6929C19.9694 74.9843 19.4388 75.4191 19.3423 76.3854Z" fill="#00ABE5"/>
<path d="M0 0V72.5685H1.44706V71.6022C1.44706 69.573 2.70118 68.3168 4.77529 68.3168H6.17412V70.7326H5.01647C4.38941 70.7326 3.95529 71.0708 3.95529 71.9404V72.6169H6.12588V75.0326H4.00353V86H9.55059C8.05529 85.4685 6.99412 83.9708 6.99412 82.0865V76.5787C6.99412 74.0663 8.68235 72.3753 10.9494 72.3753C13.2165 72.3753 14.9047 74.0663 14.9047 76.5787V82.0865C14.9047 84.0674 13.8918 85.5169 12.3482 86H16.8824V72.5685H18.7153L19.0529 73.4382H19.1494C19.68 72.7618 20.4518 72.5685 21.32 72.5685H22.0435V0H0Z" fill="#00ABE5"/>
</svg>
